<?xml version="1.0" encoding="UTF-8"?>
<svg width="20px" height="18px" viewBox="0 0 20 18" version="1.1" xmlns="http://www.w3.org/2000/svg" xmlns:xlink="http://www.w3.org/1999/xlink">
    <!-- Generator: sketchtool 52.2 (67145) - http://www.bohemiancoding.com/sketch -->
    <title>8B4F7C7E-E233-4C73-A79A-7FAB7854F532</title>
    <desc>Created with sketchtool.</desc>
    <g id="Pitch-Owner-flow" stroke="none" stroke-width="1" fill="none" fill-rule="evenodd">
        <g id="Profile-1" transform="translate(-45.000000, -339.000000)">
            <g id="bank-card-line" transform="translate(43.000000, 336.000000)">
                <polygon id="Path" points="0 0 24 0 24 24 0 24"></polygon>
                <path d="M3,3 L21,3 C21.5522847,3 22,3.44771525 22,4 L22,20 C22,20.5522847 21.5522847,21 21,21 L3,21 C2.44771525,21 2,20.5522847 2,20 L2,4 C2,3.44771525 2.44771525,3 3,3 Z M20,11 L4,11 L4,19 L20,19 L20,11 Z M20,9 L20,5 L4,5 L4,9 L20,9 Z M14,15 L18,15 L18,17 L14,17 L14,15 Z" id="Shape" fill="#595959" fill-rule="nonzero"></path>
            </g>
        </g>
    </g>
</svg>