<?xml version="1.0" encoding="UTF-8"?>
<svg width="24px" height="26px" viewBox="0 0 24 26" version="1.1" xmlns="http://www.w3.org/2000/svg" xmlns:xlink="http://www.w3.org/1999/xlink">
    <!-- Generator: sketchtool 52.2 (67145) - http://www.bohemiancoding.com/sketch -->
    <title>4636C57F-77C1-443F-967D-3D3A99BDA169</title>
    <desc>Created with sketchtool.</desc>
    <g id="Pitch-Owner-flow" stroke="none" stroke-width="1" fill="none" fill-rule="evenodd">
        <g id="Profile-1" transform="translate(-43.000000, -663.000000)">
            <g id="logout-circle-line" transform="translate(43.000000, 664.000000)">
                <polygon id="Path" points="0 0 24 0 24 24 0 24"></polygon>
                <path d="M5,11 L13,11 L13,13 L5,13 L5,16 L0,12 L5,8 L5,11 Z M4,18 L6.708,18 C9.92423948,20.8364566 14.8049703,20.6324408 17.7732745,17.5374686 C20.7415787,14.4424964 20.7415787,9.55750356 17.7732745,6.46253139 C14.8049703,3.36755922 9.92423948,3.16354339 6.708,6 L4,6 C5.88698646,3.48007624 8.85186911,1.99763491 12,2 C17.523,2 22,6.477 22,12 C22,17.523 17.523,22 12,22 C8.85186911,22.0023651 5.88698646,20.5199238 4,18 Z" id="Shape" fill="#D0021B" fill-rule="nonzero" transform="translate(11.000000, 12.000000) rotate(90.000000) translate(-11.000000, -12.000000) "></path>
            </g>
        </g>
    </g>
</svg>